<svg width="34" height="34" viewBox="0 0 34 34" fill="none" xmlns="http://www.w3.org/2000/svg">
<path d="M5.3125 26.8458C5.01146 26.8458 4.75911 26.7434 4.55547 26.5386C4.35182 26.3337 4.25 26.0799 4.25 25.7771C4.25 25.4743 4.35182 25.2226 4.55547 25.0219C4.75911 24.8212 5.01146 24.7208 5.3125 24.7208H11.9354C12.2365 24.7208 12.4888 24.8232 12.6924 25.0281C12.8961 25.2329 12.9979 25.4867 12.9979 25.7895C12.9979 26.0923 12.8961 26.3441 12.6924 26.5448C12.4888 26.7455 12.2365 26.8458 11.9354 26.8458H5.3125ZM5.3125 9.27917C5.01146 9.27917 4.75911 9.17675 4.55547 8.97193C4.35182 8.76708 4.25 8.51326 4.25 8.21047C4.25 7.90766 4.35182 7.6559 4.55547 7.45521C4.75911 7.25451 5.01146 7.15417 5.3125 7.15417H17.8146C18.1156 7.15417 18.368 7.25658 18.5716 7.46141C18.7753 7.66626 18.8771 7.92008 18.8771 8.22286C18.8771 8.52568 18.7753 8.77743 18.5716 8.97813C18.368 9.17882 18.1156 9.27917 17.8146 9.27917H5.3125ZM16.1792 29.75C15.8764 29.75 15.6247 29.6482 15.424 29.4445C15.2233 29.2409 15.1229 28.9885 15.1229 28.6875V22.8438C15.1229 22.5427 15.2253 22.2904 15.4302 22.0867C15.635 21.8831 15.8888 21.7812 16.1916 21.7812C16.4944 21.7812 16.7462 21.8831 16.9469 22.0867C17.1476 22.2904 17.2479 22.5427 17.2479 22.8438V24.7208H28.6875C28.9885 24.7208 29.2409 24.8232 29.4445 25.0281C29.6482 25.2329 29.75 25.4867 29.75 25.7895C29.75 26.0923 29.6482 26.3441 29.4445 26.5448C29.2409 26.7455 28.9885 26.8458 28.6875 26.8458H17.2479V28.6875C17.2479 28.9885 17.1455 29.2409 16.9407 29.4445C16.7358 29.6482 16.482 29.75 16.1792 29.75ZM11.9292 20.9667C11.6264 20.9667 11.3747 20.8648 11.174 20.6612C10.9733 20.4576 10.8729 20.2052 10.8729 19.9042V18.0625H5.3125C5.01146 18.0625 4.75911 17.9601 4.55547 17.7553C4.35182 17.5504 4.25 17.2966 4.25 16.9938C4.25 16.691 4.35182 16.4392 4.55547 16.2385C4.75911 16.0378 5.01146 15.9375 5.3125 15.9375H10.8729V14.025C10.8729 13.724 10.9753 13.4716 11.1802 13.268C11.385 13.0643 11.6388 12.9625 11.9416 12.9625C12.2444 12.9625 12.4962 13.0643 12.6969 13.268C12.8976 13.4716 12.9979 13.724 12.9979 14.025V19.9042C12.9979 20.2052 12.8955 20.4576 12.6907 20.6612C12.4858 20.8648 12.232 20.9667 11.9292 20.9667ZM16.1854 18.0625C15.8844 18.0625 15.632 17.9601 15.4284 17.7553C15.2247 17.5504 15.1229 17.2966 15.1229 16.9938C15.1229 16.691 15.2247 16.4392 15.4284 16.2385C15.632 16.0378 15.8844 15.9375 16.1854 15.9375H28.6875C28.9885 15.9375 29.2409 16.0399 29.4445 16.2447C29.6482 16.4496 29.75 16.7034 29.75 17.0062C29.75 17.309 29.6482 17.5608 29.4445 17.7615C29.2409 17.9622 28.9885 18.0625 28.6875 18.0625H16.1854ZM22.0584 12.2188C21.7556 12.2188 21.5038 12.1169 21.3031 11.9133C21.1024 11.7096 21.0021 11.4573 21.0021 11.1562V5.3125C21.0021 5.01146 21.1045 4.75911 21.3093 4.55547C21.5142 4.35182 21.768 4.25 22.0708 4.25C22.3736 4.25 22.6253 4.35182 22.826 4.55547C23.0267 4.75911 23.1271 5.01146 23.1271 5.3125V7.15417H28.6875C28.9885 7.15417 29.2409 7.25658 29.4445 7.46141C29.6482 7.66626 29.75 7.92008 29.75 8.22286C29.75 8.52568 29.6482 8.77743 29.4445 8.97813C29.2409 9.17882 28.9885 9.27917 28.6875 9.27917H23.1271V11.1562C23.1271 11.4573 23.0247 11.7096 22.8198 11.9133C22.615 12.1169 22.3612 12.2188 22.0584 12.2188Z" fill="white"/>
</svg>
